<?xml version="1.0" encoding="iso-8859-1"?>
<!-- Generator: Adobe Illustrator 19.0.0, SVG Export Plug-In . SVG Version: 6.00 Build 0)  -->
<svg xmlns="http://www.w3.org/2000/svg" xmlns:xlink="http://www.w3.org/1999/xlink" version="1.1" id="Capa_1" x="0px" y="0px" viewBox="0 0 511.999 511.999" style="enable-background:new 0 0 511.999 511.999;" xml:space="preserve" width="512px" height="512px">
<g>
	<g>
		<path d="M258.948,15.416c97.081,1.566,176.061,81.858,176.061,178.985c0,4.251,3.445,7.696,7.696,7.696s7.696-3.445,7.696-7.696    c0-51.37-19.85-99.814-55.893-136.409c-36.002-36.553-84.058-57.14-135.313-57.967c-52.105-0.833-101.473,19.09-139.139,56.118    C82.409,93.152,61.648,142.185,61.598,194.21c-0.065,66.692,33.475,128.008,89.718,164.017    c13.192,8.445,21.069,22.655,21.069,38.01v24.495c0,4.649,1.791,8.877,4.7,12.07c-2.076,3.872-2.663,8.367-1.594,12.729    l5.597,22.826c1.975,8.055,9.147,13.681,17.44,13.681h6.497v12.005c0,9.901,8.056,17.958,17.958,17.958h66.035    c9.901,0,17.958-8.056,17.958-17.958v-12.005h6.497c8.293,0,15.465-5.625,17.44-13.681l5.597-22.826    c1.07-4.362,0.483-8.858-1.594-12.729c2.909-3.192,4.7-7.421,4.7-12.07v-24.049c0-15.654,7.811-29.989,20.895-38.347    c45.11-28.812,76.644-75.355,86.518-127.693c0.788-4.177-1.959-8.202-6.135-8.99c-4.175-0.789-8.201,1.958-8.99,6.136    c-9.088,48.183-38.13,91.038-79.676,117.575c-17.535,11.2-28.003,30.384-28.003,51.319v24.049c0,1.415-1.15,2.565-2.565,2.565    h-2.589h-29.599V276.813v-77.951c0-16.945-13.785-30.729-30.729-30.729h-1.651c-16.945,0-30.729,13.785-30.729,30.729v77.951    v22.961c0,4.251,3.445,7.696,7.696,7.696s7.696-3.445,7.696-7.696v-15.265h32.326v138.789h-32.326v-86.742    c0-4.251-3.445-7.696-7.696-7.696s-7.696,3.445-7.696,7.696v86.742h-33.427h-2.589c-1.415,0-2.565-1.15-2.565-2.565v-24.495    c0-20.629-10.528-39.684-28.162-50.973c-51.797-33.162-82.684-89.626-82.625-151.039c0.046-47.868,19.174-93.009,53.856-127.104    C165.553,33.007,211.021,14.609,258.948,15.416z M274.076,269.117h-32.325v-70.255c0-8.456,6.88-15.337,15.337-15.337h1.651    c8.456,0,15.337,6.88,15.337,15.337V269.117z M291.583,494.043c0,1.415-1.15,2.565-2.565,2.565h-66.035    c-1.415,0-2.565-1.15-2.565-2.565v-12.005h71.165V494.043z M190.914,439.672c0.287-0.367,0.932-0.982,2.018-0.982h41.123h47.718    h37.295c1.087,0,1.731,0.616,2.018,0.982c0.287,0.366,0.732,1.139,0.473,2.194l-5.597,22.826c-0.282,1.15-1.306,1.954-2.492,1.954    h-14.193h-86.557h-14.193c-1.184,0-2.208-0.803-2.491-1.954l-5.597-22.826C190.182,440.813,190.627,440.04,190.914,439.672z" fill="#009ee0"/>
	</g>
</g>
<g>
	<g>
		<path d="M255.957,59.067c-4.251,0-7.696,3.445-7.696,7.696v55.981c0,4.251,3.445,7.696,7.696,7.696    c4.251,0,7.696-3.445,7.696-7.696V66.763C263.653,62.511,260.208,59.067,255.957,59.067z" fill="#009ee0"/>
	</g>
</g>
<g>
	<g>
		<path d="M224.922,137.094l-36.487-36.487c-3.007-3.005-7.879-3.005-10.885,0c-3.006,3.007-3.006,7.879,0,10.884l36.487,36.487    c1.503,1.502,3.474,2.253,5.443,2.253s3.939-0.751,5.443-2.253C227.928,144.971,227.928,140.099,224.922,137.094z" fill="#009ee0"/>
	</g>
</g>
<g>
	<g>
		<path d="M323.481,100.607c-0.001,0-34.922,34.922-36.487,36.486c-3.007,3.005-3.009,7.878-0.003,10.883    c1.503,1.504,3.474,2.255,5.444,2.255c1.969,0,3.937-0.75,5.441-2.252c1.564-1.563,36.49-36.488,36.49-36.488L323.481,100.607z" fill="#009ee0"/>
	</g>
</g>
<g>
</g>
<g>
</g>
<g>
</g>
<g>
</g>
<g>
</g>
<g>
</g>
<g>
</g>
<g>
</g>
<g>
</g>
<g>
</g>
<g>
</g>
<g>
</g>
<g>
</g>
<g>
</g>
<g>
</g>
</svg>
