<?xml version="1.0" encoding="utf-8"?>
<!-- Generator: Adobe Illustrator 15.0.0, SVG Export Plug-In . SVG Version: 6.00 Build 0)  -->
<!DOCTYPE svg PUBLIC "-//W3C//DTD SVG 1.1//EN" "http://www.w3.org/Graphics/SVG/1.1/DTD/svg11.dtd">
<svg version="1.1" id="Ebene_1" xmlns="http://www.w3.org/2000/svg" xmlns:xlink="http://www.w3.org/1999/xlink" x="0px" y="0px"
	 width="275.171px" height="228.521px" viewBox="0 0 275.171 228.521" enable-background="new 0 0 275.171 228.521"
	 xml:space="preserve">
<path fill="#FFFFFF" d="M21.258,228.521v-18.601c29.818-16.829,49.38-32.108,58.68-45.837c9.301-13.729,13.951-29.604,13.951-47.609
	c0-8.269-1.481-14.469-4.429-18.601c-3.252-4.138-6.795-6.2-10.629-6.2c-2.955,0-7.681,1.176-14.172,3.543
	c-6.498,2.36-12.996,3.543-19.486,3.543c-12.4,0-23.029-4.429-31.887-13.286S0,65.842,0,53.145c0-14.172,5.681-26.572,17.05-37.201
	C28.413,5.314,42.218,0,58.459,0c19.486,0,37.125,8.415,52.923,25.244c15.791,16.829,23.693,38.087,23.693,63.773
	c0,31.001-9.965,59.345-29.894,85.031C85.252,199.735,57.276,217.893,21.258,228.521z"/>
<path fill="#FFFFFF" d="M160.467,228.521v-18.601c25.687-13.286,44.211-27.389,55.58-42.294
	c11.363-14.913,17.051-31.077,17.051-48.495c0-10.338-1.481-17.569-4.429-21.701c-2.955-3.84-6.2-5.757-9.743-5.757
	c-3.84,0-9.01,1.176-15.5,3.543c-6.795,2.36-12.698,3.543-17.715,3.543c-12.11,0-22.663-4.581-31.666-13.729
	c-9.009-9.148-13.507-20.075-13.507-32.772c0-14.172,5.46-26.42,16.386-36.758C167.844,5.169,181.282,0,197.226,0
	c20.075,0,38.087,8.636,54.03,25.908c15.943,17.271,23.915,38.46,23.915,63.552c0,29.52-9.819,57.054-29.451,82.596
	C226.082,197.59,197.668,216.412,160.467,228.521z"/>
</svg>
