<?xml version="1.0" encoding="iso-8859-1"?>
<!-- Generator: Adobe Illustrator 19.0.0, SVG Export Plug-In . SVG Version: 6.00 Build 0)  -->
<svg xmlns="http://www.w3.org/2000/svg" xmlns:xlink="http://www.w3.org/1999/xlink" version="1.1" id="Capa_1" x="0px" y="0px" viewBox="0 0 512 512" style="enable-background:new 0 0 512 512;" xml:space="preserve" width="512px" height="512px">
<g>
	<g>
		<path d="M383.973,54.892c-4.553-25.615-10.44-48.963-10.5-49.196c-0.674-2.664-2.744-4.751-5.402-5.449    c-2.661-0.699-5.487,0.107-7.38,2.097c-2.184,2.293-53.59,56.429-64.133,78.217c-9.768,20.186-4.614,43.785,11.08,58.255    l-4.903,19.932c-0.014,0.044-0.032,0.087-0.045,0.132l-21.94,76.065h-61.371L194.413,98.306c-0.009-0.048-0.023-0.094-0.033-0.141    c-0.03-0.149-0.065-0.297-0.105-0.445c-0.028-0.107-0.058-0.213-0.092-0.318c-0.038-0.122-0.081-0.242-0.125-0.362    c-0.047-0.129-0.099-0.257-0.152-0.381c-0.04-0.093-0.083-0.185-0.128-0.277c-0.07-0.145-0.144-0.287-0.222-0.426    c-0.022-0.039-0.039-0.081-0.062-0.119l-42.645-72.495c-1.606-2.73-4.745-4.169-7.862-3.597c-3.115,0.57-5.544,3.024-6.081,6.145    l-14.256,82.891c-0.008,0.049-0.01,0.099-0.018,0.148c-0.022,0.148-0.04,0.296-0.053,0.446c-0.01,0.113-0.018,0.224-0.024,0.336    c-0.006,0.126-0.008,0.251-0.007,0.377c0,0.14,0.004,0.279,0.012,0.418c0.006,0.099,0.014,0.197,0.024,0.296    c0.016,0.163,0.037,0.325,0.063,0.486c0.007,0.043,0.009,0.086,0.017,0.128l22.569,123.531h-10.942    c-4.168,0-7.547,3.379-7.547,7.547v59.794c0,4.168,3.379,7.547,7.547,7.547s7.547-3.379,7.547-7.547V250.04h12.403    c0.011,0,0.022,0.001,0.033,0.001c0.011,0,0.022-0.001,0.032-0.001h132.094c0.009,0,0.019,0.002,0.028,0.002    c0.008,0,0.016-0.002,0.024-0.002h39.784c0.017,0,0.034,0,0.051,0h15.096v25.642H170.517c-4.168,0-7.547,3.379-7.547,7.547    s3.379,7.547,7.547,7.547h170.868v177.456c0,15.812-12.863,28.676-28.676,28.676H170.515c-15.812,0-28.675-12.863-28.675-28.676    V336.652c0-4.168-3.379-7.547-7.547-7.547s-7.547,3.379-7.547,7.547v131.579c0,24.134,19.634,43.769,43.768,43.769h142.195    c24.134,0,43.769-19.634,43.769-43.769V242.492c0-4.168-3.379-7.547-7.547-7.547H335.5l13.206-64.595l4.899-19.912    c1.365-0.35,2.723-0.759,4.069-1.227c12.549-4.364,22.648-13.354,28.436-25.314C389.29,117.325,392.529,103.02,383.973,54.892z     M148.288,48.756l9.36,15.911l-12.488,2.281L148.288,48.756z M142.435,82.789l23.362-4.268l9.211,15.659l-35.653,6.514    L142.435,82.789z M160.578,234.946l-21.709-118.82l42.054-7.683l23.113,126.503H160.578z M320.095,234.946h-23.637l18.725-64.912    l12.771,3.142l4.541,1.117L320.095,234.946z M335.815,159.568l-16.725-4.115l1.929-7.838c5.354,2.401,10.989,3.82,16.695,4.237    L335.815,159.568z M372.523,117.323c-4.032,8.331-11.066,14.593-19.807,17.634c-2.111,0.735-4.261,1.255-6.426,1.572    c-0.044,0.007-0.09,0.014-0.134,0.022c-6.753,0.963-13.638-0.094-19.916-3.131c-2.004-0.97-3.885-2.118-5.634-3.417    c-0.002-0.002-0.005-0.003-0.007-0.005c-5.516-4.101-9.685-9.749-11.992-16.385c-3.04-8.742-2.494-18.144,1.536-26.474    c6.522-13.479,34.332-45.054,51.956-64.193C370.424,59.287,377.985,106.036,372.523,117.323z" fill="#009ee0"/>
	</g>
</g>
<g>
	<g>
		<path d="M313.884,314.753c-4.168,0-7.547,3.379-7.547,7.547v44.104c0,9.153-7.446,16.599-16.599,16.599    c-9.154,0-16.599-7.446-16.599-16.599V339.12c0-13.437-10.932-24.367-24.367-24.367s-24.367,10.931-24.367,24.367v60.042    c0,9.892-8.048,17.939-17.939,17.939c-9.891,0-17.939-8.048-17.939-17.939V356.45c0-4.168-3.379-7.547-7.547-7.547    s-7.547,3.379-7.547,7.547v42.712c0,18.214,14.818,33.032,33.032,33.032c18.214,0,33.032-14.818,33.032-33.032V339.12    c0-5.115,4.161-9.274,9.274-9.274s9.274,4.161,9.274,9.274v27.283c0,17.475,14.217,31.693,31.693,31.693    c17.476,0,31.693-14.217,31.693-31.693v-44.104C321.43,318.131,318.051,314.753,313.884,314.753z" fill="#009ee0"/>
	</g>
</g>
<g>
</g>
<g>
</g>
<g>
</g>
<g>
</g>
<g>
</g>
<g>
</g>
<g>
</g>
<g>
</g>
<g>
</g>
<g>
</g>
<g>
</g>
<g>
</g>
<g>
</g>
<g>
</g>
<g>
</g>
</svg>
