<?xml version="1.0" encoding="iso-8859-1"?>
<!-- Generator: Adobe Illustrator 19.0.0, SVG Export Plug-In . SVG Version: 6.00 Build 0)  -->
<svg xmlns="http://www.w3.org/2000/svg" xmlns:xlink="http://www.w3.org/1999/xlink" version="1.1" id="Capa_1" x="0px" y="0px" viewBox="0 0 511.999 511.999" style="enable-background:new 0 0 511.999 511.999;" xml:space="preserve" width="512px" height="512px">
<g>
	<g>
		<path d="M437.018,74.98C388.667,26.628,324.379,0,256,0c-38.017,0-74.608,8.137-108.757,24.185    c-3.828,1.799-5.473,6.36-3.674,10.188c1.798,3.827,6.36,5.469,10.187,3.674c29.797-14.003,61.581-21.587,94.586-22.604V81.22    c-42.475,1.839-81.07,18.888-110.46,45.832l-46.57-46.572c9.047-8.492,18.804-16.346,29.231-23.459    c3.494-2.383,4.394-7.147,2.011-10.641c-2.383-3.493-7.146-4.393-10.641-2.011C41.837,92.171,0,171.285,0,256    c0,68.381,26.628,132.667,74.981,181.02c48.351,48.351,112.639,74.98,181.019,74.98s132.667-26.628,181.019-74.98    C485.37,388.667,511.999,324.38,511.999,256S485.37,123.333,437.018,74.98z M137.883,148.712l54.942,54.943    c-10.268,12.371-16.969,27.795-18.539,44.688h-77.74C98.36,210.086,113.7,175.313,137.883,148.712z M192.825,308.345    l-54.942,54.942c-24.183-26.6-39.522-61.375-41.338-99.63h77.74v0.001C175.857,280.549,182.556,295.974,192.825,308.345z     M189.684,263.657h47.829l-33.797,33.797C196.159,287.942,191.139,276.338,189.684,263.657z M189.683,248.342    c1.455-12.681,6.476-24.285,14.033-33.797l33.797,33.797H189.683z M80.488,91.318l46.564,46.564    c-26.944,29.39-43.994,67.985-45.832,110.46h-65.78C17.311,189.328,40.757,133.669,80.488,91.318z M15.45,263.657h65.771    c1.839,42.475,18.888,81.07,45.832,110.46l-46.482,46.482C41.759,379.258,17.354,324.249,15.45,263.657z M248.342,496.55    c-60.592-1.904-115.601-26.309-156.942-65.122l46.482-46.482c29.39,26.944,67.985,43.994,110.46,45.832V496.55z M248.342,415.454    c-38.256-1.815-73.03-17.155-99.629-41.337l54.942-54.942c12.371,10.268,27.795,16.968,44.688,18.538V415.454z M248.342,322.316    c-12.681-1.455-24.285-6.475-33.796-14.032l33.796-33.797V322.316z M248.342,237.512l-33.796-33.797    c9.512-7.556,21.116-12.578,33.796-14.033V237.512z M248.342,174.285c-16.892,1.57-32.317,8.271-44.688,18.538l-54.942-54.942    c26.6-24.182,61.375-39.521,99.629-41.337V174.285z M496.552,248.342h-65.781c-0.595-13.776-2.777-27.388-6.546-40.562    c-1.163-4.066-5.402-6.416-9.468-5.255c-4.066,1.164-6.419,5.403-5.255,9.469c3.377,11.804,5.352,23.999,5.937,36.348h-77.724    c-1.571-16.892-8.271-32.317-18.539-44.688l55.06-55.06c9.717,10.746,18.088,22.935,24.78,36.385    c1.885,3.787,6.481,5.331,10.267,3.445c3.786-1.885,5.329-6.481,3.445-10.267c-7.336-14.742-16.692-28.297-27.723-40.332    L431.43,91.4C470.243,132.741,494.648,187.751,496.552,248.342z M322.316,263.657c-1.455,12.681-6.475,24.285-14.033,33.797    l-33.797-33.797H322.316z M274.487,248.342l33.797-33.797c7.557,9.512,12.578,21.116,14.033,33.797H274.487z M337.714,263.658    h77.74c-1.816,38.255-17.155,73.029-41.338,99.629l-54.942-54.942C329.443,295.974,336.143,280.55,337.714,263.658z     M263.657,15.449c60.592,1.904,115.601,26.31,156.942,65.122l-46.427,46.427c-7.656-7.014-15.941-13.378-24.795-18.976    c-25.76-16.288-55.249-25.47-85.72-26.792V15.449z M263.657,96.559c37.774,1.769,72.761,16.574,99.763,41.19l-55.075,55.075    c-12.371-10.268-27.795-16.968-44.688-18.538V96.559z M263.657,189.684c12.681,1.455,24.285,6.475,33.796,14.033l-33.796,33.796    V189.684z M263.657,274.487l33.796,33.797c-9.512,7.556-21.116,12.578-33.796,14.033V274.487z M308.345,319.175l54.942,54.942    c-26.6,24.183-61.374,39.522-99.629,41.337v-77.74h0C280.549,336.143,295.974,329.443,308.345,319.175z M263.657,496.55v-65.771    c42.475-1.839,81.07-18.888,110.46-45.832l46.482,46.482C379.258,470.24,324.249,494.646,263.657,496.55z M431.428,420.6    l-46.482-46.482c26.944-29.39,43.994-67.985,45.832-110.46h65.771C494.646,324.249,470.241,379.258,431.428,420.6z" fill="#009ee0"/>
	</g>
</g>
<g>
</g>
<g>
</g>
<g>
</g>
<g>
</g>
<g>
</g>
<g>
</g>
<g>
</g>
<g>
</g>
<g>
</g>
<g>
</g>
<g>
</g>
<g>
</g>
<g>
</g>
<g>
</g>
<g>
</g>
</svg>
